<svg width="32" height="32" viewBox="0 0 24 24" fill="none" xmlns="http://www.w3.org/2000/svg">
  <defs>
    <linearGradient id="brainGradient" x1="0%" y1="0%" x2="100%" y2="100%">
      <stop offset="0%" style="stop-color:#2563eb;stop-opacity:1" />
      <stop offset="100%" style="stop-color:#0d9488;stop-opacity:1" />
    </linearGradient>
  </defs>
  <path d="M9.5 2A2.5 2.5 0 0 0 7 4.5v.55a2.5 2.5 0 0 0-1.5 2.45v.5A2.5 2.5 0 0 0 3 10.5V12a2.5 2.5 0 0 0 2.5 2.5h.55a2.5 2.5 0 0 0 2.45 1.5h.5a2.5 2.5 0 0 0 2.5-2.5v-.55a2.5 2.5 0 0 0 1.5-2.45v-.5A2.5 2.5 0 0 0 15 7.5V6a2.5 2.5 0 0 0-2.5-2.5h-.55A2.5 2.5 0 0 0 9.5 2z" fill="url(#brainGradient)" stroke="white" stroke-width="0.5"/>
  <circle cx="8" cy="7" r="1" fill="white" opacity="0.8"/>
  <circle cx="12" cy="9" r="1" fill="white" opacity="0.8"/>
  <circle cx="10" cy="12" r="0.8" fill="white" opacity="0.6"/>
  <path d="M7 8c1 0 2 1 3 1s2-1 3-1" stroke="white" stroke-width="0.8" fill="none" opacity="0.7"/>
  <path d="M8 11c1 0 1.5 1 2.5 1s1.5-1 2.5-1" stroke="white" stroke-width="0.6" fill="none" opacity="0.6"/>
</svg>